<?xml version="1.0" standalone="no"?>
<!DOCTYPE svg PUBLIC "-//W3C//DTD SVG 20010904//EN"
 "http://www.w3.org/TR/2001/REC-SVG-20010904/DTD/svg10.dtd">
<svg version="1.0" xmlns="http://www.w3.org/2000/svg"
 width="466.000000pt" height="466.000000pt" viewBox="0 0 466.000000 466.000000"
 preserveAspectRatio="xMidYMid meet">

<g transform="translate(0.000000,466.000000) scale(0.100000,-0.100000)"
fill="#000000" stroke="none">
<path d="M2724 4550 c-189 -25 -432 -157 -588 -320 -134 -140 -175 -254 -183
-511 -5 -148 7 -367 24 -423 10 -35 -15 -11 -90 90 -116 154 -231 250 -381
319 -172 79 -464 102 -622 49 -64 -21 -100 -40 -274 -141 -176 -103 -234 -146
-295 -217 -70 -80 -92 -125 -127 -260 -29 -109 -32 -135 -32 -261 0 -125 3
-149 28 -222 30 -92 110 -219 200 -319 31 -34 107 -101 171 -149 63 -48 157
-125 207 -171 102 -95 177 -137 283 -159 80 -17 210 -19 305 -5 35 5 66 7 68
6 2 -2 -8 -26 -21 -53 -70 -138 -117 -362 -124 -598 -4 -159 -2 -192 17 -285
l21 -105 -53 -44 c-117 -99 -267 -283 -314 -386 -24 -52 -25 -57 -10 -80 21
-32 38 -31 111 4 64 30 165 128 279 269 32 39 62 72 66 72 4 0 26 -24 49 -54
54 -69 222 -232 284 -275 158 -108 383 -160 693 -161 187 0 433 23 539 50 252
66 673 289 848 450 122 113 251 287 334 455 57 112 158 417 187 560 51 249 57
513 17 712 -22 105 -98 297 -147 370 -20 28 -83 94 -142 146 -207 184 -185
176 -554 212 -66 6 -84 17 -53 29 23 8 73 93 90 152 9 30 22 99 31 154 26 175
-2 349 -91 570 -56 140 -91 201 -167 296 -156 194 -335 266 -584 234z m261
-209 c112 -53 214 -182 291 -368 109 -264 130 -485 72 -776 -9 -49 -9 -60 3
-67 11 -8 11 -10 -1 -13 -59 -18 -229 -37 -350 -41 -119 -4 -165 -10 -256 -35
-135 -36 -258 -83 -383 -145 -51 -26 -94 -46 -95 -44 -2 3 -32 80 -66 173 -24
67 -66 275 -81 405 -18 153 -15 380 4 463 42 172 147 286 372 399 143 73 216
90 350 82 60 -4 95 -12 140 -33z m-1815 -736 c287 -20 420 -102 634 -390 50
-66 123 -161 163 -212 46 -58 86 -122 109 -174 l36 -83 -73 -65 c-177 -154
-331 -330 -449 -511 -38 -58 -75 -113 -82 -124 -21 -28 -255 -45 -371 -26
-121 19 -159 40 -261 139 -50 49 -141 127 -202 174 -165 127 -271 253 -318
376 -41 110 -19 396 41 514 35 69 136 150 308 249 94 53 188 104 210 112 49
20 123 34 150 30 11 -1 58 -6 105 -9z m1807 -674 c4 -15 23 -23 81 -36 70 -16
81 -16 159 0 46 9 125 17 176 17 108 1 340 -28 379 -48 42 -22 213 -189 247
-242 31 -49 82 -177 107 -272 38 -141 36 -446 -5 -647 -28 -134 -115 -402
-161 -493 -59 -117 -202 -320 -225 -320 -27 0 -257 241 -319 335 -49 73 -305
524 -359 631 -67 134 -115 252 -212 519 -48 132 -101 264 -117 293 -22 40 -27
57 -19 65 30 30 -3 87 -51 87 -40 0 -105 -61 -119 -113 -13 -48 -10 -73 42
-327 42 -205 80 -328 162 -525 82 -194 268 -546 389 -735 65 -103 231 -270
375 -379 28 -21 28 -21 8 -37 -35 -27 -316 -160 -420 -199 -166 -62 -141 -72
-291 111 -71 87 -167 201 -213 253 -46 52 -99 118 -116 146 -35 54 -133 277
-196 444 -80 214 -236 769 -224 799 10 25 -6 52 -36 65 l-30 12 95 106 c92
102 182 183 276 246 121 82 332 184 466 227 131 41 144 43 151 17z m-1098
-916 c36 -235 130 -582 228 -840 97 -256 162 -353 385 -581 151 -154 166 -172
146 -178 -43 -11 -323 -6 -423 9 -210 30 -296 66 -425 178 -149 130 -210 218
-246 357 -14 54 -16 96 -11 245 9 249 34 359 137 600 64 149 174 354 185 343
2 -2 13 -62 24 -133z"/>
<path d="M3438 2484 c-53 -28 -76 -123 -42 -172 21 -30 66 -52 109 -52 51 0
104 51 112 106 13 99 -90 167 -179 118z"/>
</g>
</svg>
